<svg xmlns="http://www.w3.org/2000/svg" viewBox="0 0 120 120" width="120" height="120">
  <!-- 背景円 -->
  <circle cx="60" cy="60" r="58" fill="url(#bg-grad)" stroke="#dbeafe" stroke-width="2"/>
  <defs>
    <linearGradient id="bg-grad" x1="0%" y1="0%" x2="100%" y2="100%">
      <stop offset="0%" stop-color="#eff6ff"/>
      <stop offset="100%" stop-color="#dbeafe"/>
    </linearGradient>
    <clipPath id="circle-clip">
      <circle cx="60" cy="60" r="56"/>
    </clipPath>
  </defs>
  <g clip-path="url(#circle-clip)">
    <!-- 体（スーツ） -->
    <ellipse cx="60" cy="130" rx="52" ry="48" fill="#475569"/>
    <!-- ベスト -->
    <path d="M40 98 L60 115 L80 98 L80 130 L40 130 Z" fill="#334155"/>
    <!-- ネクタイ -->
    <path d="M57 98 L60 115 L63 98 Z" fill="#991b1b"/>
    <!-- シャツ襟 -->
    <path d="M48 94 L60 100 L72 94 L70 98 L60 103 L50 98 Z" fill="#f8fafc"/>

    <!-- 首 -->
    <rect x="52" y="82" width="16" height="16" rx="4" fill="#f5d0a9"/>

    <!-- 顔 -->
    <ellipse cx="60" cy="58" rx="28" ry="32" fill="#f5d0a9"/>

    <!-- 髪（短髪、やや白髪混じり） -->
    <ellipse cx="60" cy="34" rx="29" ry="16" fill="#3f3f46"/>
    <ellipse cx="60" cy="30" rx="26" ry="12" fill="#52525b"/>
    <!-- サイド -->
    <rect x="31" y="34" width="6" height="18" rx="3" fill="#52525b"/>
    <rect x="83" y="34" width="6" height="18" rx="3" fill="#52525b"/>

    <!-- 耳 -->
    <ellipse cx="32" cy="58" rx="5" ry="7" fill="#f0c090"/>
    <ellipse cx="88" cy="58" rx="5" ry="7" fill="#f0c090"/>

    <!-- 眉 -->
    <path d="M42 48 Q48 44 54 47" stroke="#3f3f46" stroke-width="2" fill="none" stroke-linecap="round"/>
    <path d="M66 47 Q72 44 78 48" stroke="#3f3f46" stroke-width="2" fill="none" stroke-linecap="round"/>

    <!-- メガネ -->
    <!-- 左レンズ -->
    <rect x="39" y="49" width="18" height="13" rx="3" fill="none" stroke="#78716c" stroke-width="2"/>
    <!-- 右レンズ -->
    <rect x="63" y="49" width="18" height="13" rx="3" fill="none" stroke="#78716c" stroke-width="2"/>
    <!-- ブリッジ -->
    <path d="M57 55 Q60 52 63 55" stroke="#78716c" stroke-width="1.5" fill="none"/>
    <!-- テンプル -->
    <line x1="39" y1="53" x2="33" y2="52" stroke="#78716c" stroke-width="1.5"/>
    <line x1="81" y1="53" x2="87" y2="52" stroke="#78716c" stroke-width="1.5"/>
    <!-- レンズの光沢 -->
    <rect x="41" y="51" width="5" height="3" rx="1" fill="rgba(255,255,255,0.3)"/>
    <rect x="65" y="51" width="5" height="3" rx="1" fill="rgba(255,255,255,0.3)"/>

    <!-- 目 -->
    <ellipse cx="48" cy="56" rx="3" ry="2.5" fill="#1c1917"/>
    <circle cx="47" cy="55" r="1" fill="white" opacity="0.7"/>
    <ellipse cx="72" cy="56" rx="3" ry="2.5" fill="#1c1917"/>
    <circle cx="71" cy="55" r="1" fill="white" opacity="0.7"/>

    <!-- 鼻 -->
    <path d="M58 58 Q60 66 62 63" stroke="#d4a574" stroke-width="1.2" fill="none" stroke-linecap="round"/>

    <!-- 笑顔の口 -->
    <path d="M48 70 Q54 78 60 76 Q66 78 72 70" stroke="#c47a5a" stroke-width="1.8" fill="none" stroke-linecap="round"/>
    <!-- 歯 -->
    <path d="M50 72 Q60 79 70 72" fill="#fefefe"/>
    <!-- 下唇ライン -->
    <path d="M50 72 Q60 76 70 72" stroke="#c47a5a" stroke-width="0.8" fill="none"/>

    <!-- 笑いジワ（目尻） -->
    <path d="M36 54 Q38 56 36 58" stroke="#d4a574" stroke-width="0.8" fill="none"/>
    <path d="M84 54 Q82 56 84 58" stroke="#d4a574" stroke-width="0.8" fill="none"/>

    <!-- 頬の赤み -->
    <circle cx="40" cy="65" r="5" fill="#f0a0a0" opacity="0.2"/>
    <circle cx="80" cy="65" r="5" fill="#f0a0a0" opacity="0.2"/>
  </g>
</svg>
